<svg xmlns="http://www.w3.org/2000/svg"><symbol id="icon-action" viewBox="0 0 548.172 548.172"><path d="M333.186 376.438c0-1.902-.668-3.806-1.999-5.708-10.66-12.758-19.223-23.702-25.697-32.832 3.997-7.803 7.043-15.037 9.131-21.693l44.255-6.852c1.718-.194 3.241-1.19 4.572-2.994 1.331-1.816 1.991-3.668 1.991-5.571v-52.822c0-2.091-.66-3.949-1.991-5.564s-2.95-2.618-4.853-2.993l-43.4-6.567c-2.098-6.473-5.331-14.281-9.708-23.413 2.851-4.19 7.139-9.902 12.85-17.131 5.709-7.234 9.713-12.371 11.991-15.417 1.335-1.903 1.999-3.713 1.999-5.424 0-5.14-13.706-20.367-41.107-45.683-1.902-1.52-3.901-2.281-6.002-2.281-2.279 0-4.182.659-5.712 1.997l-33.691 25.41c-7.801-3.996-14.939-6.945-21.411-8.854l-6.567-43.68c-.187-1.903-1.14-3.571-2.853-4.997-1.714-1.427-3.617-2.142-5.713-2.142h-53.1c-4.377 0-7.232 2.284-8.564 6.851-2.286 8.757-4.473 23.416-6.567 43.968-8.183 2.664-15.511 5.71-21.982 9.136l-32.832-25.693c-1.903-1.335-3.901-1.997-5.996-1.997-3.621 0-11.138 5.614-22.557 16.846-11.421 11.228-19.229 19.698-23.413 25.409-1.334 1.525-1.997 3.428-1.997 5.712 0 1.711.662 3.614 1.997 5.708 10.657 12.756 19.221 23.7 25.694 32.832-3.996 7.808-7.04 15.037-9.132 21.698l-44.255 6.848c-1.715.19-3.236 1.188-4.57 2.993C.666 243.35 0 245.203 0 247.105v52.819c0 2.095.666 3.949 1.997 5.564 1.334 1.622 2.95 2.525 4.857 2.714l43.396 6.852c2.284 7.23 5.618 15.037 9.995 23.411-3.046 4.191-7.517 9.999-13.418 17.418-5.905 7.427-9.805 12.471-11.707 15.133-1.332 1.903-1.999 3.717-1.999 5.421 0 5.147 13.706 20.369 41.114 45.687 1.903 1.519 3.899 2.275 5.996 2.275 2.474 0 4.377-.66 5.708-1.995l33.689-25.406c7.801 3.997 14.939 6.943 21.413 8.847l6.567 43.684c.188 1.902 1.142 3.572 2.853 4.996 1.713 1.427 3.616 2.139 5.711 2.139h53.1c4.38 0 7.233-2.282 8.566-6.851 2.284-8.949 4.471-23.698 6.567-44.256a129.247 129.247 0 0 0 21.982-8.846l32.833 25.693c1.903 1.335 3.901 1.995 5.996 1.995 3.617 0 11.091-5.66 22.415-16.991 11.32-11.317 19.175-19.842 23.555-25.55 1.332-1.328 2-3.134 2-5.42zm-98.789-50.812c-14.272 14.27-31.499 21.408-51.673 21.408-20.179 0-37.406-7.139-51.678-21.408-14.274-14.277-21.412-31.505-21.412-51.68 0-20.174 7.138-37.401 21.412-51.675 14.272-14.275 31.5-21.411 51.678-21.411 20.174 0 37.401 7.135 51.673 21.411 14.277 14.274 21.413 31.501 21.413 51.675 0 20.175-7.135 37.403-21.413 51.68zM505.628 391.29c-2.471-5.517-5.329-10.465-8.562-14.846 9.709-21.512 14.558-34.646 14.558-39.402 0-.753-.373-1.424-1.14-1.995-22.846-13.322-34.643-19.985-35.405-19.985l-1.711.574c-7.803 7.807-16.563 18.463-26.266 31.977-3.805-.379-6.656-.574-8.559-.574-1.909 0-4.76.195-8.569.574-2.655-4-7.61-10.427-14.842-19.273-7.23-8.846-11.611-13.277-13.134-13.277-.38 0-3.234 1.522-8.566 4.575a2562.197 2562.197 0 0 0-16.844 9.709c-5.906 3.433-9.229 5.328-9.992 5.711-.767.568-1.144 1.239-1.144 1.992 0 4.764 4.853 17.888 14.559 39.402-3.23 4.381-6.089 9.329-8.562 14.842-28.363 2.851-42.544 5.805-42.544 8.85v39.968c0 3.046 14.181 5.996 42.544 8.85 2.279 5.141 5.137 10.089 8.562 14.839-9.706 21.512-14.559 34.646-14.559 39.402 0 .76.377 1.431 1.144 1.999 23.216 13.514 35.022 20.27 35.402 20.27 1.522 0 5.903-4.473 13.134-13.419 7.231-8.948 12.18-15.413 14.842-19.41 3.806.373 6.66.564 8.569.564 1.902 0 4.754-.191 8.559-.564 2.659 3.997 7.611 10.462 14.842 19.41 7.231 8.946 11.608 13.419 13.135 13.419.38 0 12.187-6.759 35.405-20.27.767-.568 1.14-1.235 1.14-1.999 0-4.757-4.855-17.891-14.558-39.402 3.426-4.75 6.279-9.698 8.562-14.839 28.362-2.854 42.544-5.804 42.544-8.85v-39.968c0-3.046-14.182-6-42.544-8.854zm-41.258 54.672c-7.128 7.139-15.745 10.715-25.834 10.715-10.092 0-18.705-3.576-25.837-10.715-7.139-7.139-10.712-15.748-10.712-25.837 0-9.894 3.621-18.466 10.855-25.693 7.23-7.231 15.797-10.849 25.693-10.849 9.894 0 18.466 3.614 25.7 10.849 7.228 7.228 10.849 15.8 10.849 25.693-.006 10.089-3.572 18.698-10.714 25.837zM505.628 98.931c-2.471-5.52-5.329-10.468-8.562-14.849 9.709-21.505 14.558-34.639 14.558-39.397 0-.758-.373-1.427-1.14-1.999-22.846-13.323-34.643-19.984-35.405-19.984l-1.711.57c-7.803 7.808-16.563 18.464-26.266 31.977-3.805-.378-6.656-.57-8.559-.57-1.909 0-4.76.192-8.569.57-2.655-3.997-7.61-10.42-14.842-19.27-7.23-8.852-11.611-13.276-13.134-13.276-.38 0-3.234 1.521-8.566 4.569a3047.873 3047.873 0 0 0-16.844 9.71c-5.906 3.428-9.229 5.33-9.992 5.708-.767.571-1.144 1.237-1.144 1.999 0 4.758 4.853 17.893 14.559 39.399-3.23 4.38-6.089 9.327-8.562 14.847-28.363 2.853-42.544 5.802-42.544 8.848v39.971c0 3.044 14.181 5.996 42.544 8.848 2.279 5.137 5.137 10.088 8.562 14.847-9.706 21.51-14.559 34.639-14.559 39.399 0 .757.377 1.426 1.144 1.997 23.216 13.513 35.022 20.27 35.402 20.27 1.522 0 5.903-4.471 13.134-13.418 7.231-8.947 12.18-15.415 14.842-19.414 3.806.378 6.66.571 8.569.571 1.902 0 4.754-.193 8.559-.571 2.659 3.999 7.611 10.466 14.842 19.414 7.231 8.947 11.608 13.418 13.135 13.418.38 0 12.187-6.757 35.405-20.27.767-.571 1.14-1.237 1.14-1.997 0-4.76-4.855-17.889-14.558-39.399 3.426-4.759 6.279-9.707 8.562-14.847 28.362-2.853 42.544-5.804 42.544-8.848v-39.971c0-3.046-14.182-5.996-42.544-8.852zm-41.258 54.674c-7.128 7.139-15.745 10.708-25.834 10.708-10.092 0-18.705-3.569-25.837-10.708-7.139-7.135-10.712-15.749-10.712-25.837 0-9.897 3.621-18.464 10.855-25.697 7.23-7.233 15.797-10.85 25.693-10.85 9.894 0 18.466 3.621 25.7 10.85 7.228 7.232 10.849 15.8 10.849 25.697-.006 10.088-3.572 18.702-10.714 25.837z"/></symbol><symbol id="icon-android" viewBox="0 0 475.071 475.071"><path d="M65.947 153.884c-8.183 0-15.136 2.853-20.844 8.566-5.708 5.711-8.564 12.562-8.564 20.555v122.772c0 8.179 2.855 15.126 8.564 20.837 5.708 5.712 12.657 8.562 20.841 8.562 8.186 0 15.085-2.851 20.699-8.562 5.618-5.711 8.425-12.658 8.425-20.837V183.005c0-7.996-2.857-14.847-8.565-20.555-5.709-5.71-12.564-8.566-20.556-8.566zM106.494 349.457c0 8.754 3.046 16.177 9.136 22.269 6.091 6.085 13.512 9.13 22.27 9.13h21.128l.288 64.81c0 8.186 2.855 15.129 8.564 20.841 5.708 5.711 12.562 8.565 20.555 8.565 8.188 0 15.133-2.854 20.844-8.565 5.711-5.712 8.564-12.655 8.564-20.841v-64.81h39.397v64.81c0 8.186 2.854 15.129 8.562 20.841 5.715 5.711 12.662 8.565 20.848 8.565 8.179 0 15.126-2.854 20.834-8.565 5.708-5.712 8.559-12.655 8.559-20.841v-64.81h21.416c8.56 0 15.89-3.039 21.98-9.13 6.092-6.092 9.138-13.515 9.138-22.269V159.308H106.494v190.149zM302.345 43.682L322.61 6.279c1.335-2.474.855-4.377-1.424-5.708-2.478-1.143-4.38-.572-5.708 1.714l-20.56 37.685c-18.082-7.994-37.205-11.991-57.384-11.991-20.174 0-39.304 3.997-57.387 11.991L159.591 2.286C158.263 0 156.357-.571 153.883.572c-2.285 1.331-2.758 3.234-1.426 5.708l20.271 37.402c-20.559 10.467-36.923 25.076-49.108 43.824-12.181 18.749-18.273 39.259-18.273 61.525h264.095c0-22.266-6.091-42.777-18.273-61.525-12.187-18.748-28.452-33.358-48.824-43.824zM185.144 98.068c-2.187 2.19-4.803 3.284-7.849 3.284-3.046 0-5.614-1.093-7.71-3.284-2.091-2.187-3.14-4.805-3.14-7.85 0-3.046 1.049-5.664 3.14-7.854 2.093-2.19 4.665-3.282 7.71-3.282 3.042 0 5.659 1.091 7.849 3.282 2.19 2.19 3.284 4.808 3.284 7.854 0 3.046-1.094 5.66-3.284 7.85zm120.345 0c-2.098 2.19-4.668 3.284-7.713 3.284-3.046 0-5.657-1.093-7.848-3.284-2.19-2.187-3.281-4.805-3.281-7.85 0-3.046 1.091-5.664 3.281-7.854 2.19-2.19 4.802-3.282 7.848-3.282 3.045 0 5.615 1.091 7.713 3.282 2.088 2.19 3.139 4.808 3.139 7.854 0 3.046-1.048 5.66-3.139 7.85zM429.964 162.306c-5.708-5.614-12.655-8.422-20.841-8.422-7.991 0-14.843 2.808-20.551 8.422-5.711 5.616-8.568 12.517-8.568 20.699v122.772c0 8.179 2.857 15.126 8.568 20.837 5.708 5.712 12.56 8.562 20.551 8.562 8.186 0 15.133-2.851 20.841-8.562 5.715-5.711 8.568-12.658 8.568-20.837V183.005c0-8.183-2.853-15.084-8.568-20.699z"/></symbol><symbol id="icon-css3" viewBox="0 0 512 512"><path d="M76.194 24.26l-17.18 85.963h349.875l-10.941 55.527H47.852L30.906 251.7h349.842l-19.51 98.031-141.005 46.711-122.2-46.711 8.364-42.521H20.448L0 410.387l202.113 77.353 233.002-77.353L512 24.26H76.194z"/></symbol><symbol id="icon-facebook" viewBox="0 0 430.113 430.114"><path d="M158.081 83.3v59.218h-43.385v72.412h43.385v215.183h89.122V214.936h59.805s5.601-34.721 8.316-72.685H247.54V92.74c0-7.4 9.717-17.354 19.321-17.354h48.557V.001h-66.021C155.878-.004 158.081 72.48 158.081 83.3z"/></symbol><symbol id="icon-html5" viewBox="0 0 456.804 456.804"><path d="M27.405 0l36.542 410.56 163.882 46.244 165.022-46.244L429.398 0H27.405zm322.62 133.904h-192.43l4.283 51.676h183.866l-14.273 155.315-102.499 28.26v.287h-1.143l-103.356-28.547-6.28-79.367h49.965l3.711 39.971 55.959 15.126 56.245-15.126 6.283-65.097H115.625l-13.418-152.46h252.392l-4.574 49.962z"/></symbol><symbol id="icon-instagram" viewBox="0 0 97.395 97.395"><path d="M12.501 0h72.393c6.875 0 12.5 5.09 12.5 12.5v72.395c0 7.41-5.625 12.5-12.5 12.5H12.501C5.624 97.395 0 92.305 0 84.895V12.5C0 5.09 5.624 0 12.501 0zm58.447 10.821a4.395 4.395 0 0 0-4.383 4.385v10.495a4.396 4.396 0 0 0 4.383 4.385h11.008a4.398 4.398 0 0 0 4.385-4.385V15.206a4.397 4.397 0 0 0-4.385-4.385H70.948zm15.439 30.367h-8.572a28.486 28.486 0 0 1 1.25 8.355c0 16.2-13.556 29.332-30.275 29.332-16.718 0-30.272-13.132-30.272-29.332 0-2.904.438-5.708 1.25-8.355h-8.945v41.141a3.884 3.884 0 0 0 3.872 3.872h67.822a3.883 3.883 0 0 0 3.872-3.872V41.188h-.002zM48.789 29.533c-10.802 0-19.56 8.485-19.56 18.953s8.758 18.953 19.56 18.953c10.803 0 19.562-8.485 19.562-18.953s-8.758-18.953-19.562-18.953z"/></symbol><symbol id="icon-launch" viewBox="0 0 332.786 332.786"><path d="M86.564 211.083c-5.085-5.083-7-2.529-8.131-1.397-29.282 29.282-55.278 99.935-41.535 93.034 50.03-25.12 58.366-17.641 87.647-46.921 1.132-1.132 3.735-2.998-1.498-8.232l-36.483-36.484z"/><path d="M244.419 210.691c-1.327-4.223 1.453-6.258 2.623-7.521C311.67 133.396 352.744 40.435 322.306 9.995c-30.278-30.276-120.372 11.998-190.127 76.16-1.38 1.271-4.1 3.678-8.966 2.662l-21.733-5.175c-6.034-1.435-14.56.977-18.946 5.363L2.789 168.749c-4.386 4.387-2.961 8.764 3.167 9.726l57.677 9.064c6.128.964 14.73-1.837 19.115-6.224 0 0 2.976-2.984 5.966.005 16.496 16.494 47.15 47.148 62.866 62.865 3.124 3.123.132 6.094.132 6.094-4.387 4.387-7.187 12.987-6.223 19.116l9.063 57.676c.963 6.13 5.34 7.555 9.726 3.168l79.746-79.746c4.385-4.386 6.798-12.91 5.361-18.944l-4.966-20.858zm-17.854-103.025c-13.507-13.507-13.507-35.404 0-48.909 13.506-13.507 35.403-13.507 48.911 0 13.505 13.504 13.505 35.402 0 48.908-13.508 13.507-35.406 13.507-48.911.001z"/></symbol><symbol id="icon-list" viewBox="0 0 511.626 511.626"><path d="M54.818 200.999c-15.23 0-28.171 5.327-38.832 15.987C5.33 227.642 0 240.583 0 255.813c0 15.223 5.33 28.172 15.99 38.83 10.66 10.656 23.604 15.984 38.832 15.984 15.225 0 28.167-5.328 38.828-15.984 10.657-10.657 15.987-23.606 15.987-38.83 0-15.23-5.33-28.171-15.99-38.828-10.658-10.656-23.601-15.986-38.829-15.986zM54.821 54.817c-15.23 0-28.171 5.33-38.832 15.987C5.333 81.464.003 94.405.003 109.632c0 15.229 5.327 28.171 15.986 38.831 10.66 10.657 23.604 15.985 38.832 15.985 15.225 0 28.167-5.329 38.828-15.985 10.657-10.66 15.987-23.603 15.987-38.831 0-15.227-5.33-28.168-15.987-38.828-10.656-10.657-23.598-15.987-38.828-15.987zM54.821 347.18c-15.23 0-28.175 5.325-38.832 15.981C5.333 373.824.003 386.767.003 401.989c0 15.235 5.327 28.171 15.986 38.834 10.66 10.657 23.604 15.985 38.832 15.985 15.225 0 28.167-5.328 38.828-15.985 10.657-10.663 15.987-23.599 15.987-38.834 0-15.223-5.33-28.172-15.987-38.828-10.656-10.656-23.598-15.981-38.828-15.981zM508.917 75.8c-1.813-1.803-3.949-2.708-6.427-2.708H155.313c-2.473 0-4.615.902-6.423 2.708-1.807 1.812-2.712 3.949-2.712 6.423v54.821c0 2.475.905 4.611 2.712 6.424 1.809 1.805 3.951 2.708 6.423 2.708H502.49c2.478 0 4.616-.9 6.427-2.708 1.81-1.812 2.71-3.949 2.71-6.424v-54.82c-.001-2.474-.904-4.615-2.71-6.424zM502.49 219.271H155.313c-2.473 0-4.615.9-6.423 2.712-1.807 1.807-2.712 3.949-2.712 6.423v54.819c0 2.472.905 4.613 2.712 6.421 1.809 1.813 3.951 2.714 6.423 2.714H502.49c2.478 0 4.616-.9 6.427-2.714 1.81-1.808 2.71-3.949 2.71-6.421v-54.819c0-2.474-.903-4.62-2.71-6.423-1.814-1.808-3.95-2.712-6.427-2.712zM502.49 365.447H155.313c-2.473 0-4.615.903-6.423 2.714-1.807 1.81-2.712 3.949-2.712 6.42V429.4c0 2.478.905 4.616 2.712 6.427 1.809 1.807 3.951 2.707 6.423 2.707H502.49c2.478 0 4.616-.9 6.427-2.707 1.81-1.811 2.71-3.949 2.71-6.427v-54.819c0-2.471-.903-4.617-2.71-6.42-1.814-1.804-3.95-2.714-6.427-2.714z"/></symbol><symbol id="icon-mail" viewBox="0 0 474 474"><path d="M437.5 59.3h-401C16.4 59.3 0 75.7 0 95.8v282.4c0 20.1 16.4 36.5 36.5 36.5h401c20.1 0 36.5-16.4 36.5-36.5V95.8c0-20.1-16.4-36.5-36.5-36.5zm-5.3 27L239.5 251.1 46.8 86.3h385.4zM447 378.2c0 5.2-4.3 9.5-9.5 9.5h-401c-5.2 0-9.5-4.3-9.5-9.5V104.9l203.7 174.2c.1.1.3.2.4.3.1.1.3.2.4.3.3.2.5.4.8.5.1.1.2.1.3.2l1.2.6c.1 0 .2.1.3.1.3.1.6.3 1 .4.1 0 .3.1.4.1.3.1.6.2.9.2.1 0 .3.1.4.1.3.1.7.1 1 .2h.3c.4 0 .9.1 1.3.1s.9 0 1.3-.1h.3c.3 0 .7-.1 1-.2.1 0 .3-.1.4-.1.3-.1.6-.2.9-.2.1 0 .3-.1.4-.1.3-.1.6-.2 1-.4.1 0 .2-.1.3-.1l1.2-.6c.1-.1.2-.1.3-.2.3-.2.5-.3.8-.5.1-.1.3-.2.4-.3.1-.1.3-.2.4-.3L447 109.2v269z"/></symbol><symbol id="icon-plan" viewBox="0 0 438.536 438.536"><path d="M352.733 75.226c-8.466-16.271-19.599-29.787-33.394-40.541-13.801-10.752-29.413-19.223-46.821-25.41C255.1 3.094 237.349 0 219.266 0s-35.832 3.09-53.247 9.276c-17.417 6.187-33.025 14.657-46.826 25.41-13.796 10.754-24.932 24.267-33.402 40.541-8.47 16.274-12.703 33.83-12.703 52.677 0 29.502 9.805 55.006 29.409 76.516 8.567 9.324 15.656 17.604 21.271 24.838 5.617 7.228 11.279 16.316 16.989 27.261 5.708 10.944 8.945 21.176 9.707 30.696-8.947 5.332-13.418 13.135-13.418 23.415 0 7.042 2.378 13.134 7.139 18.274-4.76 5.14-7.139 11.231-7.139 18.273 0 9.897 4.285 17.604 12.85 23.131-2.478 4.373-3.715 8.847-3.715 13.415 0 8.754 2.996 15.516 8.992 20.27 5.992 4.757 13.369 7.139 22.126 7.139 3.806 8.374 9.519 15.037 17.13 19.985s15.891 7.419 24.838 7.419c8.949 0 17.227-2.471 24.838-7.419 7.614-4.948 13.329-11.611 17.135-19.985 8.754 0 16.132-2.382 22.124-7.139 5.995-4.754 8.99-11.516 8.99-20.27 0-4.568-1.239-9.042-3.717-13.415 8.562-5.523 12.851-13.233 12.851-23.131 0-7.042-2.382-13.134-7.139-18.273 4.757-5.141 7.139-11.232 7.139-18.274 0-10.28-4.474-18.083-13.422-23.415.763-9.521 4-19.752 9.708-30.696 5.719-10.944 11.376-20.033 16.995-27.261 5.619-7.234 12.706-15.515 21.265-24.838 19.605-21.51 29.414-47.014 29.414-76.516-.001-18.848-4.237-36.404-12.715-52.678zm-43.249 104.066a1264.349 1264.349 0 0 1-8.709 9.421c-3.898 4.187-6.8 7.324-8.703 9.419-24.362 29.126-37.78 57.482-40.255 85.078h-65.1c-2.474-27.596-15.891-55.952-40.256-85.078a1119.114 1119.114 0 0 0-8.709-9.419c-3.899-4.189-6.805-7.325-8.708-9.421-12.941-15.037-19.414-32.168-19.414-51.389 0-13.706 3.284-26.458 9.851-38.262 6.571-11.801 15.136-21.458 25.697-28.979 10.562-7.521 22.266-13.418 35.116-17.701 12.847-4.286 25.837-6.423 38.972-6.423s26.125 2.137 38.971 6.423c12.847 4.283 24.551 10.181 35.115 17.701 10.561 7.52 19.13 17.181 25.693 28.979 6.563 11.803 9.853 24.556 9.853 38.262 0 19.221-6.471 36.352-19.414 51.389z"/><path d="M247.674 86.795c-9.418-3.046-18.891-4.57-28.404-4.57-2.474 0-4.615.9-6.423 2.712-1.809 1.809-2.712 3.949-2.712 6.423s.904 4.615 2.712 6.423c1.809 1.805 3.949 2.712 6.423 2.712 9.9 0 19.985 2.38 30.272 7.135 10.273 4.758 15.406 11.516 15.406 20.273 0 2.473.9 4.618 2.711 6.423 1.813 1.804 3.949 2.708 6.42 2.708 2.478 0 4.616-.901 6.427-2.708 1.811-1.809 2.71-3.951 2.71-6.423 0-9.9-3.572-18.464-10.704-25.693-7.132-7.23-15.417-12.375-24.838-15.415z"/></symbol><symbol id="icon-right-arrow" viewBox="0 0 612 612"><path d="M612 306C612 137.004 474.995 0 306 0 137.004 0 0 137.004 0 306c0 168.995 137.004 306 306 306 168.995 0 306-137.005 306-306zM229.667 425.896l108.185-108.185-117.838-117.865 39.335-39.335 157.368 157.367-147.521 147.52-39.529-39.502z" fill="#fff"/></symbol><symbol id="icon-star" viewBox="0 0 19.481 19.481"><path d="M10.201.758l2.478 5.865 6.344.545a.5.5 0 0 1 .285.876l-4.812 4.169 1.442 6.202a.5.5 0 0 1-.745.541l-5.452-3.288-5.452 3.288a.5.5 0 0 1-.745-.541l1.442-6.202-4.813-4.17a.5.5 0 0 1 .285-.876l6.344-.545L9.28.758a.5.5 0 0 1 .921 0z"/></symbol><symbol id="icon-trophy" viewBox="0 0 475.084 475.084"><path d="M467.087 99.355c-5.328-5.327-11.797-7.993-19.411-7.993h-82.228V63.955c0-12.562-4.466-23.313-13.415-32.261-8.945-8.945-19.704-13.417-32.264-13.417H155.318c-12.562 0-23.318 4.471-32.264 13.417-8.947 8.947-13.418 19.698-13.418 32.261v27.408H27.408c-7.612 0-14.083 2.663-19.414 7.993S0 111.158 0 118.772v36.544c0 13.512 3.949 27.122 11.849 40.828 7.898 13.703 18.555 26.079 31.977 37.114 13.417 11.04 29.881 20.32 49.392 27.839 19.512 7.519 40.019 11.755 61.529 12.703 7.996 10.284 17.034 19.321 27.122 27.121 7.235 6.471 12.228 13.366 14.989 20.704 2.758 7.323 4.138 15.841 4.138 25.55 0 10.28-2.9 18.938-8.708 25.974-5.802 7.05-15.082 10.568-27.834 10.568-14.277 0-26.98 4.332-38.116 12.99-11.134 8.665-16.702 19.561-16.702 32.695v18.268c0 2.669.855 4.859 2.568 6.57 1.714 1.711 3.901 2.566 6.567 2.566h237.544c2.67 0 4.853-.855 6.571-2.566 1.704-1.711 2.56-3.901 2.56-6.57v-18.268c0-13.135-5.564-24.027-16.707-32.695-11.136-8.658-23.839-12.99-38.116-12.99-12.748 0-22.032-3.519-27.829-10.568-5.804-7.036-8.699-15.693-8.699-25.974 0-9.713 1.376-18.227 4.134-25.55 2.766-7.338 7.762-14.229 14.989-20.704 10.089-7.803 19.13-16.845 27.117-27.121 21.519-.948 42.021-5.185 61.537-12.703 19.503-7.519 35.974-16.799 49.389-27.839 13.422-11.039 24.079-23.411 31.977-37.114 7.898-13.706 11.848-27.315 11.848-40.828v-36.544c-.004-7.61-2.67-14.084-7.999-19.417zM63.525 201.565c-17.987-15.987-26.979-31.405-26.979-46.252v-27.408h73.089c0 39.784 7.04 75.09 21.126 105.924-26.834-5.518-49.247-16.277-67.236-32.264zm375.011-46.249c0 14.847-8.986 30.269-26.973 46.255-17.994 15.987-40.406 26.743-67.239 32.261 14.086-30.833 21.125-66.14 21.125-105.924h73.087v27.408z"/></symbol><symbol id="icon-twitter" viewBox="0 0 612 612"><path d="M612 116.258a250.714 250.714 0 0 1-72.088 19.772c25.929-15.527 45.777-40.155 55.184-69.411-24.322 14.379-51.169 24.82-79.775 30.48-22.907-24.437-55.49-39.658-91.63-39.658-69.334 0-125.551 56.217-125.551 125.513 0 9.828 1.109 19.427 3.251 28.606-104.326-5.24-196.835-55.223-258.75-131.174-10.823 18.51-16.98 40.078-16.98 63.101 0 43.559 22.181 81.993 55.835 104.479a125.556 125.556 0 0 1-56.867-15.756v1.568c0 60.806 43.291 111.554 100.693 123.104-10.517 2.83-21.607 4.398-33.08 4.398-8.107 0-15.947-.803-23.634-2.333 15.985 49.907 62.336 86.199 117.253 87.194-42.947 33.654-97.099 53.655-155.916 53.655-10.134 0-20.116-.612-29.944-1.721 55.567 35.681 121.536 56.485 192.438 56.485 230.948 0 357.188-191.291 357.188-357.188l-.421-16.253c24.666-17.593 46.005-39.697 62.794-64.861z"/></symbol></svg>